HIERARCHY
ROOT World_Hips
{
	OFFSET	 0.0	 0.0	 0.0
	CHANNELS 6 Xposition Yposition Zposition Zrotation Xrotation Yrotation
	JOINT Hips_RightUpLeg
	{
		OFFSET	 -93.9752578735	 0.0	 0.0
		CHANNELS 3 Zrotation Xrotation Yrotation
		JOINT RightUpLeg_RightLeg
		{
			OFFSET	 0.0	 -469.876281738	 0.0
			CHANNELS 3 Zrotation Xrotation Yrotation
			JOINT RightLeg_RightFoot
			{
				OFFSET	 0.0	 -432.28616333	 0.0
				CHANNELS 3 Zrotation Xrotation Yrotation
				JOINT RightFoot_RightToeBase
				{
					OFFSET	 0.0	 0.0	 164.456695557
					CHANNELS 3 Zrotation Xrotation Yrotation
					End Site
					{
						OFFSET	 0.0	 0.0	 75.0
					}
				}
			}
		}
	}
	JOINT Hips_LeftUpLeg
	{
		OFFSET	 93.9752578735	 0.0	 0.0
		CHANNELS 3 Zrotation Xrotation Yrotation
		JOINT LeftUpLeg_LeftLeg
		{
			OFFSET	 0.0	 -469.876281738	 0.0
			CHANNELS 3 Zrotation Xrotation Yrotation
			JOINT LeftLeg_LeftFoot
			{
				OFFSET	 0.0	 -432.28616333	 0.0
				CHANNELS 3 Zrotation Xrotation Yrotation
				JOINT LeftFoot_LeftToeBase
				{
					OFFSET	 0.0	 0.0	 164.456695557
					CHANNELS 3 Zrotation Xrotation Yrotation
					End Site
					{
						OFFSET	 0.0	 0.0	 75.0
					}
				}
			}
		}
	}
	JOINT Hips_Spine
	{
		OFFSET	 0.0	 234.938140869	 0.0
		CHANNELS 3 Zrotation Xrotation Yrotation
		JOINT Spine_RightShoulder
		{
			OFFSET	 0.0	 234.938140869	 0.0
			CHANNELS 3 Zrotation Xrotation Yrotation
			JOINT RightShoulder_RightArm
			{
				OFFSET	 0.0	 140.962875366	 0.0
				CHANNELS 3 Zrotation Xrotation Yrotation
				JOINT RightArm_RightForeArm
				{
					OFFSET	 0.0	 281.925750732	 0.0
					CHANNELS 3 Zrotation Xrotation Yrotation
					JOINT RightForeArm_RightHand
					{
						OFFSET	 0.0	 258.431945801	 0.0
						CHANNELS 3 Zrotation Xrotation Yrotation
						End Site
						{
							OFFSET	 0.0	 100.0	 0.0
						}
						JOINT RightHand_RightHandThumb1
						{
							OFFSET	 0.0	 0.0	 0.0
							CHANNELS 3 Zrotation Xrotation Yrotation
							End Site
							{
								OFFSET	 0.0	 0.0	 100.0
							}
						}
					}
				}
			}
		}
		JOINT Spine_LeftShoulder
		{
			OFFSET	 0.0	 234.938140869	 0.0
			CHANNELS 3 Zrotation Xrotation Yrotation
			JOINT LeftShoulder_LeftArm
			{
				OFFSET	 0.0	 140.962875366	 0.0
				CHANNELS 3 Zrotation Xrotation Yrotation
				JOINT LeftArm_LeftForeArm
				{
					OFFSET	 0.0	 281.925750732	 0.0
					CHANNELS 3 Zrotation Xrotation Yrotation
					JOINT LeftForeArm_LeftHand
					{
						OFFSET	 0.0	 258.431945801	 0.0
						CHANNELS 3 Zrotation Xrotation Yrotation
						End Site
						{
							OFFSET	 0.0	 100.0	 0.0
						}
						JOINT LeftHand_LeftHandThumb1
						{
							OFFSET	 0.0	 0.0	 0.0
							CHANNELS 3 Zrotation Xrotation Yrotation
							End Site
							{
								OFFSET	 0.0	 0.0	 100.0
							}
						}
					}
				}
			}
		}
		JOINT Spine_Head
		{
			OFFSET	 0.0	 300.720825195	 0.0
			CHANNELS 3 Zrotation Xrotation Yrotation
			End Site
			{
				OFFSET	 0.0	 115.0	 0.0
			}
		}
	}
}
MOTION
Frames:   11
Frame Time: 0.033333
-4.54122	 -105.498	 982.496	 76.227105249	 83.4049412674	 104.483370231	 0.471264731969	 -3.66595087991	 -5.07854955996	 4.9739485941e-15	 17.8975	 2.18432946571e-16	 2.16410237513	 20.1573777443	 -3.67062196251	 -2.07384888557e-14	 -48.0291777807	 -1.13067634296e-14	 9.02081107606	 -3.46388926653	 6.11327876818	 4.93792167947e-15	 17.7722	 2.22511524033e-16	 -8.31043734265	 6.81132124624	 7.20954958929	 -7.11469155869e-15	 -29.1365777807	 -2.69353993326e-15	 2.93742924869	 -2.80856799427	 4.85607762477	 99.8555783629	 -1.46030940567	 1.64430274356	 3.33936602073	 -1.21989939092	 35.2691373448	 -1.98597741209e-15	 -6.97605	 -37.4922	 -3.12925	 -7.43904	 -3.78037345413e-15	 -0.0	 0.0	 -0.0	 -97.2131503614	 2.83742030599	 15.2974078628	 -8.94977017785	 4.22600887507	 -14.6404715903	 8.05949811946e-16	 2.84276	 11.9038	 -2.47954	 6.74661	 3.4250517414e-15	 -0.0	 0.0	 -0.0	 10.872683631	 7.21991878406	 -13.4912842971	 
-5.04209	 -105.927	 982.464	 75.9811126892	 83.4174722791	 104.715107225	 0.421956081423	 -3.73023896865	 -5.05788516035	 4.98177388062e-15	 17.9247	 2.17536253672e-16	 2.18951610518	 20.1617366522	 -3.6748474167	 -2.07437647101e-14	 -48.0346777807	 -1.13106861201e-14	 8.97300558584	 -3.51255650443	 6.12996274384	 4.93999092281e-15	 17.7794	 2.22279478551e-16	 -8.30198530643	 6.80822075398	 7.20516633101	 -7.10238099168e-15	 -29.1146777807	 -2.68754805813e-15	 2.89684029787	 -2.72956107683	 4.83159760733	 99.9686888702	 -1.45563707083	 1.6525061519	 3.59398187433	 -1.18550619893	 35.2920229644	 -2.0063741765e-15	 -7.04698	 -37.1351	 -3.07414	 -7.47368	 -3.79817762457e-15	 -0.0	 0.0	 -0.0	 -97.4682924776	 2.81399624575	 15.2778912103	 -9.32469524364	 4.34839908169	 -14.212169792	 8.30856370001e-16	 2.93046	 12.282	 -2.68766	 6.94536	 3.52693210715e-15	 -0.0	 0.0	 -0.0	 10.8968142581	 7.24456205173	 -13.4711493845	 
-5.55788	 -106.338	 982.433	 75.72845807	 83.4317810698	 104.955704366	 0.370925410149	 -3.78825742893	 -5.05474909049	 4.98692450966e-15	 17.9426	 2.16943945063e-16	 2.18265300401	 20.1644115288	 -3.67560466075	 -2.07247769026e-14	 -48.0148777807	 -1.12965699358e-14	 8.91907825893	 -3.55915901941	 6.11985351292	 4.94099684617e-15	 17.7829	 2.2216657665e-16	 -8.29381221304	 6.79945324231	 7.22207413304	 -7.09013184155e-15	 -29.0928777807	 -2.68159015725e-15	 2.85588342393	 -2.6515116173	 4.80466908898	 100.069061846	 -1.45629872074	 1.67310327813	 3.83233189509	 -1.15544918277	 35.356650282	 -2.03269532054e-15	 -7.13848	 -36.8278	 -3.06214	 -7.41716	 -3.76912908209e-15	 -0.0	 0.0	 -0.0	 -97.6654267344	 2.78231440955	 15.2330984069	 -9.75876789663	 4.5069731158	 -13.9302070648	 8.43208850488e-16	 2.97395	 12.632	 -2.70733	 7.18619	 3.65049858502e-15	 -0.0	 0.0	 -0.0	 10.9038518719	 7.25831945707	 -13.4552015758	 
-6.07823	 -106.75	 982.415	 75.4444058893	 83.4440110689	 105.215417447	 0.318956510333	 -3.84731805691	 -5.04924688206	 4.98922669818e-15	 17.9506	 2.16678659843e-16	 2.17322949616	 20.1752660654	 -3.6610849057	 -2.07133720531e-14	 -48.0029777807	 -1.12880932919e-14	 8.8667292234	 -3.60955691074	 6.13811336852	 4.94286506107e-15	 17.7894	 2.21956724607e-16	 -8.26840919292	 6.80528612123	 7.23177337582	 -7.09237900339e-15	 -29.0968777807	 -2.68268285602e-15	 2.80744864283	 -2.58150985034	 4.79052906775	 100.199132446	 -1.41716126988	 1.70594736408	 4.03621074116	 -1.16698340415	 35.4728888274	 -2.0628035124e-15	 -7.2431	 -36.4729	 -3.13256	 -7.39457	 -3.75752100616e-15	 -0.0	 0.0	 -0.0	 -97.8537502407	 2.70382327742	 15.2094175846	 -10.1653765881	 4.67832919024	 -13.3213153617	 8.71777539549e-16	 3.07452	 12.7708	 -2.9845	 7.22788	 3.67190231403e-15	 -0.0	 0.0	 -0.0	 10.9291884844	 7.28264563175	 -13.3973337322	 
-6.58514	 -107.125	 982.376	 75.1894548357	 83.4580167122	 105.432496608	 0.268130563909	 -3.89613325008	 -5.03102612017	 4.98934181136e-15	 17.951	 2.16665386397e-16	 2.17725831491	 20.1763560045	 -3.65044419977	 -2.06968970287e-14	 -47.9857777807	 -1.12758510444e-14	 8.8139381134	 -3.64632483426	 6.14139664435	 4.94343991514e-15	 17.7914	 2.2189210843e-16	 -8.27147652647	 6.79116850191	 7.25531001783	 -7.0794602062e-15	 -29.0738777807	 -2.67640286874e-15	 2.74522004325	 -2.51865010704	 4.79908025358	 100.313698811	 -1.41160570817	 1.687652772	 4.25902922018	 -1.17318790897	 35.5410027925	 -2.07933412332e-15	 -7.30052	 -36.3405	 -3.12966	 -7.36914	 -3.74445499162e-15	 -0.0	 0.0	 -0.0	 -98.0739235256	 2.68564157865	 15.1689797018	 -10.4898550498	 4.83150019302	 -13.4458519191	 8.53394911528e-16	 3.00981	 13.7911	 -3.47386	 7.33527	 3.72705480668e-15	 -0.0	 0.0	 -0.0	 10.9738013257	 7.32836563913	 -13.3645190205	 
-7.12221	 -107.486	 982.333	 74.9720020368	 83.4761905322	 105.612519171	 0.213192673938	 -3.93617989588	 -5.00919996652	 4.98744248961e-15	 17.9444	 2.16884286393e-16	 2.18135858596	 20.1866131999	 -3.63655356332	 -2.06956522697e-14	 -47.9844777807	 -1.12749262244e-14	 8.7528658443	 -3.6765436774	 6.14344810867	 4.94306625899e-15	 17.7901	 2.21934111424e-16	 -8.2510283756	 6.77714064229	 7.29793451652	 -7.0690731839e-15	 -29.0553777807	 -2.6713568963e-15	 2.69162514113	 -2.44825958056	 4.81087594909	 100.417755782	 -1.38353164695	 1.6895017771	 4.48075245486	 -1.2015629509	 35.5011827267	 -2.08722666733e-15	 -7.32793	 -35.9576	 -3.13749	 -7.31345	 -3.7158465248e-15	 -0.0	 0.0	 -0.0	 -98.2715653364	 2.61879699278	 15.1661077145	 -10.8330844084	 4.96646170388	 -12.8177516689	 8.84718585441e-16	 3.12007	 13.9854	 -3.53582	 7.35116	 3.73521771616e-15	 -0.0	 0.0	 -0.0	 10.9889846894	 7.35894809221	 -13.3577079756	 
-7.66365	 -107.875	 982.292	 74.6943239752	 83.4872418343	 105.845672236	 0.159905362215	 -3.99062640186	 -5.00524112542	 4.9879029223e-15	 17.946	 2.16831241596e-16	 2.16174649643	 20.1905910722	 -3.6023077647	 -2.06770840812e-14	 -47.9650777807	 -1.12611328418e-14	 8.69724400477	 -3.71842805816	 6.14219825148	 4.94464713735e-15	 17.7956	 2.21756343504e-16	 -8.23830662451	 6.7661149143	 7.34091605318	 -7.0651439311e-15	 -29.0483777807	 -2.66944884589e-15	 2.63493267378	 -2.39410417631	 4.82572435261	 100.519533636	 -1.37411584321	 1.64072521177	 4.69278325907	 -1.19624004619	 35.5585178355	 -2.10276120431e-15	 -7.38187	 -35.9816	 -3.21033	 -7.28273	 -3.70006843517e-15	 -0.0	 0.0	 -0.0	 -98.4646213784	 2.59927706173	 15.1212248149	 -11.1438126914	 5.07351043786	 -12.7079375028	 8.8483223294e-16	 3.12047	 14.4666	 -3.66033	 7.46713	 3.79481085775e-15	 -0.0	 0.0	 -0.0	 11.0133519189	 7.40949133737	 -13.3191351096	 
-8.19817	 -108.27	 982.255	 74.4208081343	 83.4983034413	 106.071640358	 0.10761470151	 -4.04431572446	 -4.98775892849	 4.98764392821e-15	 17.9451	 2.16861081016e-16	 2.16098862889	 20.2076307774	 -3.57098767097	 -2.06726833606e-14	 -47.9604777807	 -1.12578643827e-14	 8.64231765632	 -3.76113615854	 6.1389605042	 4.94766536293e-15	 17.8061	 2.21416510567e-16	 -8.23577181996	 6.74551450851	 7.38488301875	 -7.04730060685e-15	 -29.0165777807	 -2.66078938545e-15	 2.57290934412	 -2.34222296344	 4.85090761606	 100.621501283	 -1.35336346123	 1.60288247501	 4.89092816652	 -1.20972692553	 35.569027655	 -2.11502101334e-15	 -7.42443	 -36.1644	 -3.27415	 -7.16076	 -3.63744470211e-15	 -0.0	 0.0	 -0.0	 -98.6521763986	 2.58343416561	 15.1343209786	 -11.4280345635	 5.1845530219	 -12.475585273	 8.85778351724e-16	 3.1238	 14.5382	 -3.95562	 7.4692	 3.79587484796e-15	 -0.0	 0.0	 -0.0	 11.0435943588	 7.45244230152	 -13.2918883776	 
-8.72872	 -108.648	 982.22	 74.2303664018	 83.5077643461	 106.2079698	 0.0593570500038	 -4.08943603592	 -4.97499970229	 4.98735615911e-15	 17.9441	 2.16894230735e-16	 2.15083149642	 20.2173325987	 -3.53816139758	 -2.06703876435e-14	 -47.9580777807	 -1.12561594247e-14	 8.59198677308	 -3.79392352175	 6.14849946736	 4.95111506132e-15	 17.8181	 2.21027394153e-16	 -8.23266045619	 6.72442925228	 7.42458110155	 -7.03614008984e-15	 -28.9966777807	 -2.65537753025e-15	 2.51195784761	 -2.26576424446	 4.89794771447	 100.730220987	 -1.36375651905	 1.56753524925	 5.08388067524	 -1.19938091281	 35.52425186	 -2.12012612537e-15	 -7.44215	 -36.4072	 -3.29019	 -7.11191	 -3.61237280116e-15	 -0.0	 0.0	 -0.0	 -98.8055563998	 2.57160360622	 15.1322853118	 -11.7294203383	 5.27935688574	 -12.2442389671	 8.98643892578e-16	 3.16908	 14.7405	 -4.09074	 7.42989	 3.77567103253e-15	 -0.0	 0.0	 -0.0	 11.0728232926	 7.45968790537	 -13.2654679623	 
-9.2467	 -109.046	 982.183	 74.0278873474	 83.5126325922	 106.372550156	 0.0139962305436	 -4.13533527173	 -4.9748408439	 4.98606122584e-15	 17.9396	 2.1704333682e-16	 2.14616767121	 20.2372035514	 -3.50150621447	 -2.06606332249e-14	 -47.9478777807	 -1.1248915838e-14	 8.54796536155	 -3.83870133349	 6.15169561068	 4.95680775889e-15	 17.8379	 2.20383635419e-16	 -8.23273058428	 6.70945693672	 7.45574671885	 -7.03232743088e-15	 -28.9898777807	 -2.65352950775e-15	 2.45436760238	 -2.18720232207	 4.9435303731	 100.827233377	 -1.38393436763	 1.54623928265	 5.26123611733	 -1.19955790557	 35.4612314315	 -2.11888726235e-15	 -7.43785	 -36.6558	 -3.3374	 -6.97474	 -3.54199970614e-15	 -0.0	 0.0	 -0.0	 -98.963833697	 2.57437144433	 15.1402084524	 -11.9923803306	 5.38668683126	 -11.969614988	 8.93009398177e-16	 3.14925	 14.7672	 -4.14177	 7.42681	 3.77408818495e-15	 -0.0	 0.0	 -0.0	 11.0955236365	 7.44982959816	 -13.2564214689	 
-9.7695	 -109.408	 982.147	 73.9255701465	 83.5165619118	 106.445499919	 -0.0277976434238	 -4.16558983735	 -4.98995978488	 4.98335640002e-15	 17.9302	 2.17354445774e-16	 2.13087683886	 20.2559927697	 -3.4576477798	 -2.06599639452e-14	 -47.9471777807	 -1.12484188766e-14	 8.50673739962	 -3.87359152744	 6.14378714248	 4.96359412732e-15	 17.8615	 2.19613533486e-16	 -8.21226402482	 6.6867311601	 7.48878455452	 -7.01713784239e-15	 -28.9627777807	 -2.6461709384e-15	 2.40271595629	 -2.10398387184	 4.99871485583	 100.918492177	 -1.43041917561	 1.50041988125	 5.46816576546	 -1.17676152166	 35.2433150382	 -2.11323777834e-15	 -7.41824	 -36.8899	 -3.27673	 -6.97801	 -3.54367684975e-15	 -0.0	 0.0	 -0.0	 -99.1042270148	 2.59556492438	 15.1646359885	 -12.2600052218	 5.48890653461	 -11.6749459752	 8.99757746543e-16	 3.173	 14.635	 -4.12254	 7.32221	 3.72034614318e-15	 -0.0	 0.0	 -0.0	 11.1114332686	 7.45059466874	 -13.2320265398	 
